.::::JOIN  http://www.SceneTime.com    Sign up is OPEN for now!::::....

....::::JOIN  http://www.SceneTime.com   Sign up is OPEN for now!::::....

.....:::::JOIN  http://www.SceneTime.com   Sign up is OPEN for now!::::....

......::::::JOIN  http://www.SceneTime.com   Sign up is OPEN for now!::::....


**********************************************************************************

Love for All and Sharing is the first step to solving all the problems of humanity.

Website I want to share.
             
        
http://SceneTime.com


- Latest Releases
- Super Fast Speeds
- Good Community
- Competitions with prizes (yay)
- Love for the Scene


Credit to EVERYONE for sharing and seeding back
especially to SceneTime where i get all my
downloads.

For more info about this release, open .NFO file with notepad !!!
Support scenetime to grow faster.

*************************************************************************************

....::::JOIN   http://www.SceneTime.com    Sign up is OPEN for now!::::....
....::::JOIN   http://www.SceneTime.com    Sign up is OPEN for now!::::....


INFO


IMDB: 
http://www.imdb.com/title/tt1977895/



Media Info:

General
Complete name: Resolution.2012.WEBRiP.AC3-2.0.XviD-AXED.avi
Format: AVI
Format/Info: Audio Video Interleave
File size: 1.37 GiB
Duration: 1h 32mn
Overall bit rate: 2 108 Kbps
Writing library: VirtualDub build 32842/release

Video
ID: 0
Format: MPEG-4 Visual
Format profile: Advanced Simple@L5
Format settings, BVOP: 1
Format settings, QPel: No
Format settings, GMC: No warppoints
Format settings, Matrix: Default (H.263)
Codec ID: XVID
Codec ID/Hint: XviD
Duration: 1h 32mn
Bit rate: 1 713 Kbps
Width: 720 pixels
Height: 304 pixels
Display aspect ratio: 2.35:1
Frame rate: 29.970 fps
Color space: YUV
Chroma subsampling: 4:2:0
Bit depth: 8 bits
Scan type: Progressive
Compression mode: Lossy
Bits/(Pixel*Frame): 0.261
Stream size: 1.11 GiB (81%)
Writing library: XviD 1.2.1 (UTC 2008-12-04)

Audio
ID: 1
Format: AC-3
Format/Info: Audio Coding 3
Mode extension: CM (complete main)
Codec ID: 2000
Duration: 1h 32mn
Bit rate mode: Constant
Bit rate: 384 Kbps
Channel(s): 2 channels
Channel positions: Front: L R
Sampling rate: 48.0 KHz
Bit depth: 16 bits
Compression mode: Lossy
Delay relative to video: 8ms
Stream size: 255 MiB (18%)
Alignment: Split accross interleaves
Interleave, duration: 33 ms (1.00 video frame)
Interleave, preload duration: 500 ms

SOURCE:
VOD Rental


NOTE

This was done a bit different than our usual VOD output, hence the title "WEBRiP", but the output is just as good as any "HDRiP" you've seen. Some of you will highly appreciate this movie, because it's an extremely well made, intelligent film. Some of you will hate it, because there aren't constant explosions or CGI monsters. You have to actually pay attention to this one
